<svg id="Layer_1" data-name="Layer 1" xmlns="http://www.w3.org/2000/svg" xmlns:xlink="http://www.w3.org/1999/xlink" viewBox="0 0 820.32 462.24"><defs><style>.cls-1{fill:#fff;stroke:#000;stroke-miterlimit:10;}</style></defs><title>mask_ant</title><image width="1709" height="963" transform="scale(0.48)" xlink:href="../../../../../../Downloads/56476728_10157646839105260_7075225589501657088_o.jpg"/><path class="cls-1" d="M994.3,453.59s-73.23,4.69-78.38.12-14.52-30.32-14.52-30.32-13.49-.36-18.95.6-10.3-9.14-10.3-9.14l-16.38,2.88,2.27,7.82-8-1.32,5.88,40.06,44.7,22.26,18,16-8.34,4.21-12.88-11.43s-44.7-22.26-47.27-24.54-5.57-45.6-8.15-47.88-2.57-2.29-8-1.33-16.68,8.42-17,14,1,29.95,1,29.95-31.83-10.83-34.71-7.58-19.87,17.2-22.76,20.45-5.46,1-5.15-4.57-2.26-7.82,3.19-8.78,16.69-8.42,19.57-11.67,24.1,4,29.56,3-2.27-7.82.92-16.6S823.33,418,823.33,418l-19,.6s-8.65,9.75-14.1,10.71,7.35-15,3.49-14.31c-5.45,1-14.1,10.7-19.87,17.2S751.45,447.08,738,446.72s-24.41,1.57-32.44.24-10.91,1.93-7.72-6.86.3-5.53,13.8-5.17,21.21,7.22,21.52,1.69,2.88-3.25,8.34-4.21l21.83-3.85c5.46-1,16.69-8.42,19.57-11.67s-2-13.35-4.84-10.11S763.91,417.49,758.14,424s-10.91,1.92-18.95.6-21.52-1.69-20.91-12.75-4.53-15.64,4.12-25.39,9-15.27,25.33-18.16,22.14-9.38,29.56,3,10,14.67,10,14.67l8.34-4.21s-2.57-2.28-7.42-12.39-7.11-17.92-23.48-15-21.52-1.68-32.44.24-15.76-8.18-18.64-4.93-2.58-2.28.31-5.53,8.34-4.21,13.8-5.17,24.09,4,29.55,3,2.58,2.29,5.46-1,13.18,5.9,13.18,5.9,2.89-3.25,8,1.32,7.41,12.39,17.72,21.53,18,16,13.18,5.9-10-14.68-4.84-10.11,9.68,20.21,15.14,19.25,5.46-1,8.34-4.21-4.53-15.64-1.65-18.89,11.22-7.45,8.65-9.74-23.49-15-23.49-15l1.24-22.13s5.76-6.5.3-5.54-29.86,2.53-32.44.24-8-1.32-2.26-7.82,8.34-4.21,13.79-5.17,24.41-1.56,29.56,3,2.27,7.82,2,13.35-11.53,13-3.81,19.85,5.16,4.57,15.76,8.18,10,14.68,7.11,17.93-2.88,3.25-3.5,14.31,7.73,6.86,10.61,3.61L864,367c5.77-6.5,26.26-34.77,26.26-34.77S975.32,309,978.2,305.74s-.61,11.07-3.19,8.78-71.57,23.58-77,24.54S869.46,366,866.27,374.79s8.34-4.21,13.49.36-3.5,14.32-6.38,17.56,11.53-13,19.56-11.67,13.19,5.9,16.07,2.65,28.83-32.48,34.29-33.44,84.44-12.15,81.56-8.9-11.22,7.46-30.17,8.06-43.67,7.7-49.12,8.66S919.62,387.3,917,385s5.15,4.57,7.42,12.39-8.65,9.74-14.41,16.24-.31,5.53-.62,11.06,4.23,21.18,6.8,23.46,45.93.12,51.39-.84,24.41-1.56,27,.72S994.3,453.59,994.3,453.59Z" transform="translate(-315 -286)"/></svg>