<svg id="Layer_1" data-name="Layer 1" xmlns="http://www.w3.org/2000/svg" viewBox="0 0 1134.76 774.94"><defs><style>.cls-1{fill:#fff;stroke:#000;stroke-miterlimit:10;}</style></defs><title>path1</title><path class="cls-1" d="M224.5,101.5c51-44,145.18-58.51,240-38,78.25,16.93,88.53,52.58,162,73,141.56,39.34,205.84-64.56,337-48,125.41,15.83,273.07,136.87,273,281-.1,202.26-291.08,331.29-346,287-41-33.06,10.19-194.47,73-205,44.21-7.41,70.57,63.91,110,56,57.87-11.62,110.43-187.18,47-262-93.75-110.59-440.14-.29-455,114-9,69.09,108.5,98.86,105,185-4.22,104.1-183.06,240-310,179-79.81-38.33-128-149.16-100-217,14.38-34.8,38.86-34.18,107-96,62.11-56.34,117.15-106.28,107-146-14-54.73-151.71-90.11-192-46-45,49.32,12.3,219.25,110,252,110.78,37.13,189.38-130.29,346-111,104,12.81,207.66,103.65,213,193,7.87,131.6-198.58,243.07-353,269-170.33,28.61-348.17-35-463-158-36.49-39.1-148.06-158.63-131-328,12-119.2,91.29-204.26,120-234" transform="translate(-102.24 -53.85)"/></svg>