<svg xmlns="http://www.w3.org/2000/svg" viewBox="0 0 1632.5 839.25"><defs><style>.cls-1{fill:#fff;}</style></defs><title>Asset 1path</title><g id="Layer_2" data-name="Layer 2"><g id="Layer_1-2" data-name="Layer 1"><path class="cls-1" d="M27.54,67.63S27.54-19.43,188.29,4s24.05,156,194.84,186.17,122.6-140,349.34-172.78c226-32.66,282.14,21.48,367.54,142s164.92,35.45,215.16-11.43,164.09-232.75,276.28-35.17-21.77,435.35-206,348.28-77-170.79-5-144S1522.79,241.77,1486,216.66c-66.75-45.51-366.7,40.18-329.86,137.3s271.25,110.51,197.58,229.39S1067.35,724,1069,631.91s73.67-166-1.68-226.28-21.8-208.73-149-125.34c-124.92,81.87-134,194.23,3.35,195.9,159.62,1.95,82.05,267.91,117.21,283s298-51.91,348.28-140.65,195.9-127.26,216,6.69S1460.84,840,1352,826.63s-420.27,53.1-480.55-60.76S832.94,518.05,702.33,526.42s3.35,211-118.88,251.17c-77.57,25.5-232.75,1.67-206-149S635.35,503,672.19,447.73,883.17,285.31,771,220s-90.42,21.76-211,87.07S427.73,283.63,339,287,213.4,394.15,310.52,431s65.3,155.72,8.37,199.26,51.91,102.14,6.41,164.83c-30.33,41.79-130.1,74.19-227.43-.74-96.1-74-33.49-105.49,26.79-187.53S228.47,354.51,107.91,415s-128.5-15.12-80.37-107.9c54.73-105.52,15.07-170.79,0-239.45"/></g></g></svg>